# FreeCAD v0.20 build1 Arch module
# http://www.freecadweb.org
mtllib AssemblyBase.mtl
o Cut001
usemtl color_cccccc
v -15.0 -15.0 -15.0
v -15.0 0.0 5.0
v -15.0 15.0 -15.0
v -15.0 15.0 15.0
v -15.0 0.0 15.0
v -15.0 -15.0 5.0
v 15.0 -15.0 -15.0
v 0.0 -15.0 5.0
v 15.0 -15.0 15.0
v 0.0 -15.0 15.0
v 0.0 0.0 5.0
v 0.0 0.0 15.0
v 6.0 4.901924 15.0
v 5.201867 5.571637 15.0
v 4.680922 6.473939 15.0
v 6.979055 4.545577 15.0
v 4.5 7.5 15.0
v 8.020945 4.545577 15.0
v 4.680922 8.52606 15.0
v 9.0 4.901924 15.0
v 5.201867 9.428363 15.0
v 9.798133 5.571637 15.0
v 6.0 10.098076 15.0
v 10.319077 6.473939 15.0
v 15.0 15.0 15.0
v 10.319077 8.52606 15.0
v 10.5 7.5 15.0
v 9.798133 9.428363 15.0
v 9.0 10.098076 15.0
v 8.020945 10.454423 15.0
v 6.979055 10.454423 15.0
v 15.0 15.0 -15.0
v 6.0 4.901924 -15.0
v 5.201867 5.571637 -15.0
v 4.680922 6.473939 -15.0
v 6.979055 4.545577 -15.0
v 4.5 7.5 -15.0
v 8.020945 4.545577 -15.0
v 4.680922 8.52606 -15.0
v 9.0 4.901924 -15.0
v 5.201867 9.428363 -15.0
v 9.798133 5.571637 -15.0
v 6.0 10.098076 -15.0
v 10.319077 6.473939 -15.0
v 10.319077 8.52606 -15.0
v 10.5 7.5 -15.0
v 9.798133 9.428363 -15.0
v 9.0 10.098076 -15.0
v 8.020945 10.454423 -15.0
v 6.979055 10.454423 -15.0
v 10.319077 8.52606 -15.0
v 10.5 7.5 -15.0
v 10.5 7.5 15.0
v 10.319077 8.52606 15.0
v 9.798133 9.428363 -15.0
v 9.798133 9.428363 15.0
v 8.020945 10.454423 15.0
v 8.020945 10.454423 -15.0
v 6.979055 10.454423 15.0
v 6.979055 10.454423 -15.0
v 6.0 10.098076 -15.0
v 6.0 10.098076 15.0
v 5.201867 9.428363 15.0
v 5.201867 9.428363 -15.0
v 4.680922 8.52606 15.0
v 4.680922 8.52606 -15.0
v 4.680922 6.473939 15.0
v 4.680922 6.473939 -15.0
v 5.201867 5.571637 -15.0
v 5.201867 5.571637 15.0
v 6.0 4.901924 -15.0
v 6.0 4.901924 15.0
v 8.020945 4.545577 -15.0
v 8.020945 4.545577 15.0
v 9.0 4.901924 15.0
v 9.0 4.901924 -15.0
v 10.319077 6.473939 -15.0
v 10.319077 6.473939 15.0
vn -1.0 0.0 0.0
vn -1.0 0.0 0.0
vn -1.0 0.0 0.0
vn -1.0 0.0 0.0
vn 0.0 -1.0 0.0
vn 0.0 -1.0 0.0
vn 0.0 -1.0 0.0
vn 0.0 -1.0 0.0
vn 0.0 0.0 1.0
vn 0.0 0.0 1.0
vn 0.0 -1.0 0.0
vn 0.0 -1.0 0.0
vn 0.0 0.0 1.0
vn 0.0 0.0 1.0
vn 0.0 0.0 1.0
vn 0.0 0.0 1.0
vn 0.0 0.0 1.0
vn 0.0 0.0 1.0
vn 0.0 0.0 1.0
vn 0.0 0.0 1.0
vn 0.0 0.0 1.0
vn 0.0 0.0 1.0
vn 0.0 0.0 1.0
vn 0.0 0.0 1.0
vn 0.0 0.0 1.0
vn 0.0 0.0 1.0
vn 0.0 0.0 1.0
vn 0.0 0.0 1.0
vn 0.0 0.0 1.0
vn 0.0 0.0 1.0
vn 0.0 0.0 1.0
vn 0.0 0.0 1.0
vn 0.0 0.0 1.0
vn 0.0 0.0 1.0
vn 0.0 0.0 1.0
vn 0.0 0.0 1.0
vn 0.0 1.0 0.0
vn 0.0 1.0 0.0
vn 0.0 0.0 -1.0
vn 0.0 -0.0 -1.0
vn 0.0 0.0 -1.0
vn 0.0 0.0 -1.0
vn 0.0 0.0 -1.0
vn 0.0 0.0 -1.0
vn 0.0 0.0 -1.0
vn 0.0 0.0 -1.0
vn 0.0 0.0 -1.0
vn 0.0 0.0 -1.0
vn 0.0 0.0 -1.0
vn 0.0 0.0 -1.0
vn 0.0 0.0 -1.0
vn 0.0 0.0 -1.0
vn 0.0 0.0 -1.0
vn 0.0 0.0 -1.0
vn 0.0 0.0 -1.0
vn 0.0 0.0 -1.0
vn 0.0 -0.0 -1.0
vn 0.0 0.0 -1.0
vn 0.0 0.0 -1.0
vn 0.0 0.0 -1.0
vn 1.0 0.0 0.0
vn 1.0 -0.0 0.0
vn -1.0 0.0 0.0
vn -1.0 0.0 0.0
vn -0.9848076701164246 -0.17364858090877533 0.0
vn -0.9848076701164246 -0.17364858090877533 0.0
vn -0.866025447845459 -0.49999991059303284 0.0
vn -0.866025447845459 -0.49999991059303284 0.0
vn -0.6427876353263855 -0.7660444378852844 0.0
vn -0.3420202136039734 -0.9396926164627075 0.0
vn -0.6427876353263855 -0.7660444378852844 0.0
vn 0.0 -1.0 0.0
vn -0.3420202136039734 -0.9396926164627075 0.0
vn 0.0 -1.0 0.0
vn 0.3420202136039734 -0.9396926164627075 0.0
vn 0.6427873969078064 -0.7660446166992188 0.0
vn 0.3420202136039734 -0.9396926164627075 0.0
vn 0.866025447845459 -0.49999991059303284 0.0
vn 0.6427873969078064 -0.7660446166992188 0.0
vn 0.866025447845459 -0.49999991059303284 0.0
vn 0.9848077893257141 -0.17364813387393951 0.0
vn 0.9848077297210693 0.17364804446697235 -0.0
vn 0.9848077893257141 -0.17364813387393951 0.0
vn 0.9848077297210693 0.17364804446697235 -0.0
vn 0.8660253882408142 0.5000001192092896 -0.0
vn 0.8660253882408142 0.5000001192092896 0.0
vn 0.6427876353263855 0.7660444378852844 -0.0
vn 0.3420202136039734 0.9396926164627075 -0.0
vn 0.6427876353263855 0.7660444378852844 0.0
vn 0.3420202136039734 0.9396926164627075 -0.0
vn 0.0 1.0 -0.0
vn -0.3420202136039734 0.9396926164627075 0.0
vn 0.0 1.0 0.0
vn -0.3420202136039734 0.9396926164627075 0.0
vn -0.6427878737449646 0.7660441994667053 0.0
vn -0.6427878737449646 0.7660441994667053 0.0
vn -0.8660253882408142 0.5000001192092896 0.0
vn -0.8660253882408142 0.5000001192092896 0.0
vn -0.9848076701164246 0.17364849150180817 0.0
vn -0.9848076701164246 0.17364849150180817 0.0
f 1//1 2//1 3//1 
f 3//2 2//2 4//2 
f 2//3 5//3 4//3 
f 1//4 6//4 2//4 
f 7//5 8//5 1//5 
f 1//6 8//6 6//6 
f 8//7 9//7 10//7 
f 7//8 9//8 8//8 
f 11//9 2//9 6//9 
f 11//10 6//10 8//10 
f 11//11 12//11 2//11 
f 2//12 12//12 5//12 
f 12//13 10//13 9//13 
f 4//14 5//14 12//14 
f 13//15 14//15 12//15 
f 15//16 12//16 14//16 
f 16//17 13//17 12//17 
f 17//18 4//18 12//18 
f 17//19 12//19 15//19 
f 18//20 12//20 9//20 
f 18//21 16//21 12//21 
f 19//22 4//22 17//22 
f 20//23 18//23 9//23 
f 21//24 4//24 19//24 
f 22//25 20//25 9//25 
f 23//26 4//26 21//26 
f 24//27 22//27 9//27 
f 25//28 26//28 27//28 
f 25//29 28//29 26//29 
f 25//30 29//30 28//30 
f 25//31 30//31 29//31 
f 25//32 31//32 30//32 
f 25//33 27//33 24//33 
f 25//34 24//34 9//34 
f 25//35 4//35 31//35 
f 31//36 4//36 23//36 
f 25//37 32//37 3//37 
f 25//38 3//38 4//38 
f 1//39 33//39 7//39 
f 34//40 33//40 1//40 
f 3//41 35//41 1//41 
f 1//42 35//42 34//42 
f 33//43 36//43 7//43 
f 3//44 37//44 35//44 
f 36//45 38//45 7//45 
f 3//46 39//46 37//46 
f 38//47 40//47 7//47 
f 3//48 41//48 39//48 
f 40//49 42//49 7//49 
f 3//50 43//50 41//50 
f 42//51 44//51 7//51 
f 45//52 32//52 46//52 
f 47//53 32//53 45//53 
f 48//54 32//54 47//54 
f 49//55 32//55 48//55 
f 50//56 32//56 49//56 
f 46//57 32//57 44//57 
f 44//58 32//58 7//58 
f 3//59 32//59 50//59 
f 3//60 50//60 43//60 
f 9//61 7//61 32//61 
f 9//62 32//62 25//62 
f 8//63 10//63 11//63 
f 11//64 10//64 12//64 
f 51//65 52//65 53//65 
f 51//66 53//66 54//66 
f 55//67 54//67 56//67 
f 55//68 51//68 54//68 
f 48//69 56//69 29//69 
f 48//70 29//70 57//70 
f 48//71 55//71 56//71 
f 58//72 57//72 59//72 
f 58//73 48//73 57//73 
f 60//74 58//74 59//74 
f 61//75 59//75 62//75 
f 61//76 62//76 63//76 
f 61//77 60//77 59//77 
f 64//78 63//78 65//78 
f 64//79 61//79 63//79 
f 66//80 64//80 65//80 
f 37//81 65//81 17//81 
f 37//82 17//82 67//82 
f 37//83 66//83 65//83 
f 68//84 37//84 67//84 
f 69//85 67//85 70//85 
f 69//86 68//86 67//86 
f 71//87 70//87 72//87 
f 71//88 72//88 16//88 
f 71//89 69//89 70//89 
f 36//90 71//90 16//90 
f 73//91 16//91 74//91 
f 73//92 74//92 75//92 
f 73//93 36//93 16//93 
f 76//94 73//94 75//94 
f 42//95 76//95 75//95 
f 42//96 75//96 22//96 
f 77//97 42//97 22//97 
f 77//98 22//98 78//98 
f 52//99 77//99 78//99 
f 52//100 78//100 53//100 
